<svg width="69" height="60" viewBox="0 0 69 60" fill="#3B82F6" xmlns="http://www.w3.org/2000/svg">
<path d="M36.0505 14.7458L36.1427 14.7733L36.1467 14.7688C36.5844 14.8481 37.0186 14.586 37.1472 14.1519C38.3188 10.2152 42.0099 7.46504 46.1223 7.46504C46.6092 7.46504 47.004 7.07016 47.004 6.5833C47.004 6.09643 46.6092 5.70156 46.1223 5.70156C41.0682 5.70156 36.821 9.06665 35.4572 13.6493C35.3181 14.1162 35.584 14.6067 36.0505 14.7458Z" fill="#3B82F6" stroke="#3B82F6" stroke-width="0.3"/>
<path d="M56.3672 42.4384H51.9769C51.5728 42.4384 51.2451 42.1107 51.2451 41.7067C51.2451 41.3027 51.5728 40.9749 51.9769 40.9749H56.3672C62.4191 40.9749 67.3431 36.0509 67.3431 29.999C67.3431 23.9471 62.4191 19.023 56.3672 19.023H56.2616C56.0494 19.023 55.8477 18.9311 55.7086 18.7706C55.5696 18.6101 55.5069 18.3974 55.5372 18.1873C55.6025 17.7315 55.6355 17.2737 55.6355 16.8279C55.6355 11.5829 51.3678 7.31531 46.1229 7.31531C44.0824 7.31531 42.1365 7.95296 40.4953 9.15978C40.1347 9.42478 39.6225 9.30718 39.4139 8.91047C34.7659 0.0596993 22.6257 -1.12887 16.3317 6.57053C13.6802 9.81417 12.6384 14.0336 13.4732 18.146C13.5652 18.6002 13.2176 19.0236 12.7561 19.0236H12.4629C6.41104 19.0236 1.48697 23.9477 1.48697 29.9996C1.48697 36.0514 6.41104 40.9755 12.4629 40.9755H16.8532C17.2573 40.9755 17.585 41.3032 17.585 41.7072C17.585 42.1113 17.2573 42.439 16.8532 42.439H12.4629C5.60394 42.439 0.0234375 36.8585 0.0234375 29.9995C0.0234375 23.3329 5.29499 17.8742 11.8885 17.5731C11.2691 13.3066 12.4535 9.00295 15.1985 5.64437C21.9372 -2.5996 34.8514 -1.67556 40.3106 7.51707C42.0521 6.42522 44.045 5.85244 46.1227 5.85244C52.4772 5.85244 57.5126 11.261 57.072 17.58C63.6048 17.9463 68.8063 23.3763 68.8063 29.999C68.8063 36.8585 63.2258 42.4384 56.3669 42.4384L56.3672 42.4384Z" fill="#3B82F6"/>
<path d="M15.8734 41.2935C15.8734 51.4634 24.1471 59.737 34.3169 59.737C44.4869 59.737 52.7604 51.4633 52.7604 41.2935C52.7604 31.1235 44.4869 22.85 34.3169 22.85C24.147 22.85 15.8734 31.1237 15.8734 41.2935ZM17.6372 41.2935C17.6372 32.0966 25.1199 24.6138 34.3169 24.6138C43.5138 24.6138 50.9966 32.0964 50.9966 41.2935C50.9966 50.4904 43.5138 57.9732 34.3169 57.9732C25.12 57.9732 17.6372 50.4905 17.6372 41.2935Z" fill="#3B82F6" stroke="#3B82F6" stroke-width="0.3"/>
<path d="M33.9672 48.6577C33.9672 49.0363 34.2743 49.3434 34.6529 49.3434C35.0315 49.3434 35.3386 49.0367 35.3386 48.6577V34.7291C35.3386 34.3504 35.0315 34.0434 34.6529 34.0434C34.2743 34.0434 33.9672 34.3504 33.9672 34.7291V48.6577Z" fill="#3B82F6" stroke="#3B82F6" stroke-width="0.3"/>
<path d="M34.6515 35.6999L30.8509 39.5006L34.6515 35.6999ZM34.6515 35.6999L38.4523 39.5007C38.586 39.6344 38.762 39.7015 38.9372 39.7015L34.6515 35.6999ZM29.881 39.5007C30.1488 39.7685 30.5832 39.7686 30.8508 39.5007L38.9372 39.7015C39.112 39.7015 39.2882 39.635 39.4221 39.5006C39.6899 39.2327 39.6899 38.7988 39.4221 38.5309L35.1364 34.2452C34.8686 33.9775 34.4342 33.9773 34.1666 34.2452C34.1666 34.2453 34.1666 34.2453 34.1665 34.2453L29.881 38.5309C29.6131 38.7988 29.6131 39.2328 29.881 39.5007Z" fill="#3B82F6" stroke="#3B82F6" stroke-width="0.3"/>
</svg>
